<?xml version="1.0" encoding="utf-8"?>
<!-- Generator: Adobe Illustrator 21.1.0, SVG Export Plug-In . SVG Version: 6.00 Build 0)  -->
<svg version="1.1" id="Layer_2" xmlns="http://www.w3.org/2000/svg" xmlns:xlink="http://www.w3.org/1999/xlink" x="0px" y="0px"
	 viewBox="0 0 427 142" style="enable-background:new 0 0 427 142;" xml:space="preserve">
<style type="text/css">
	.st0{fill:url(#SVGID_1_);}
	.st1{fill:url(#SVGID_2_);}
	.st2{fill:none;}
	.st3{fill:#008AAB;}
	.st4{fill:url(#SVGID_3_);}
	.st5{fill:url(#SVGID_4_);}
	.st6{fill:#00BFD6;}
	.st7{fill:url(#SVGID_5_);}
	.st8{fill:url(#SVGID_6_);}
	.st9{fill:#AEADAE;}
	.st10{fill:#231F20;}
</style>
<g>
	<g>
		<g>
			<radialGradient id="SVGID_1_" cx="398.0658" cy="48.8325" r="8.4852" gradientUnits="userSpaceOnUse">
				<stop  offset="0" style="stop-color:#7DB040"/>
				<stop  offset="0.7806" style="stop-color:#57A545"/>
			</radialGradient>
			<path class="st0" d="M401.2,53.6c-1.4-0.6-3.9-2.3-5.9-3.9c-0.9-0.7-1.8-1.4-2.4-1.9c-0.6-0.5-0.9-0.8-1-0.8c0,0-1.5-1.4-1.4-2.8
				c0-0.4,0.2-1,0.9-2.4c-0.4-0.1-0.8-0.3-1.1-0.5c-1,1.9-1.5,2.9-1.6,3.5c-0.2,0.9-0.1,1.9,0.3,2.9c0.2,0.6,0.9,1.3,1.6,2
				c0.7,0.7,1.5,1.3,1.8,1.6c0.2,0.1,0.3,0.3,0.5,0.4c0,0,0,0,0.1,0c2.2,1.6,5.7,4.2,7.2,4.5c3,0.6,5.6-1.7,7.3-3.4
				C403.8,55.3,401.8,53.9,401.2,53.6z"/>
		</g>
		<g>
			<radialGradient id="SVGID_2_" cx="386.8874" cy="28.3297" r="8.4094" gradientUnits="userSpaceOnUse">
				<stop  offset="0" style="stop-color:#7DB040"/>
				<stop  offset="0.7806" style="stop-color:#57A545"/>
			</radialGradient>
			<path class="st1" d="M395.9,29.5c-0.2-0.5-0.9-1.3-1.8-2c-1-0.9-2.1-1.8-2.2-1.8c0,0,0,0-0.1,0c-2.2-1.6-5.7-4.1-7.1-4.4
				c-0.4-0.1-0.8-0.1-1.2-0.1c-1.6,0.1-4.4,1.5-6,4.9c0.3-0.4,0.1-0.3,0.5-0.7c0.3-0.3,0.5-0.5,0.8-0.8c0.8-0.7,1.7-1.2,2.7-1.3
				c1.9-0.2,5.1,1.9,8,4.2c0,0,0,0,0,0c0.8,0.6,1.6,1.2,2.3,1.9c0,0,0,0,0.1,0c1.2,1,2.5,2.1,2.4,3.6c0,0.4-0.3,0.8-1,2.2
				c0.3,0.1,0.7,0.2,1,0.4c1.2-2.2,1.8-3.4,1.9-3.9C396.4,31,396.2,30.2,395.9,29.5z"/>
		</g>
		<path class="st2" d="M392.5,37.8c-0.1,0.1-0.2,0.1-0.3,0.2c0.1,0.1,0.2,0.1,0.3,0.2c0.1-0.1,0.2-0.1,0.3-0.2
			C392.7,37.9,392.6,37.9,392.5,37.8z"/>
		<g>
			<path class="st3" d="M392.1,38C392.1,38,392.1,38,392.1,38C392.1,38,392.1,38,392.1,38C392.1,38,392.1,38,392.1,38z"/>
		</g>
		<g>
			<linearGradient id="SVGID_3_" gradientUnits="userSpaceOnUse" x1="404.2753" y1="30.378" x2="410.6209" y2="30.378">
				<stop  offset="0" style="stop-color:#88C540"/>
				<stop  offset="0.3811" style="stop-color:#7EC342"/>
				<stop  offset="1" style="stop-color:#65BC46"/>
			</linearGradient>
			<path class="st4" d="M408,30.2c0,0.1,0,0.1-0.1,0.2c0,0,0,0,0,0c-0.5,1.3-2.2,3.6-3.7,5.6c0,0,0,0,0,0c0.9,0.9,1.7,2,1.9,2.3
				c1.6-2.2,4-5.5,4.3-6.9c0.6-3.1-1.8-5.7-3.5-7.4l0,0c0,0,0,0,0,0c0,0,0,0,0,0l0,0c-0.5-0.5-1.1-1.1-1.8-1.7c0,0,0,0,0,0
				C406.6,23.9,409.2,27,408,30.2z"/>
		</g>
		<g>
			<linearGradient id="SVGID_4_" gradientUnits="userSpaceOnUse" x1="374.2885" y1="46.732" x2="382.1546" y2="46.732">
				<stop  offset="0" style="stop-color:#88C540"/>
				<stop  offset="0.3811" style="stop-color:#7EC342"/>
				<stop  offset="1" style="stop-color:#65BC46"/>
			</linearGradient>
			<path class="st5" d="M378.6,52.5c-0.3-0.3-0.5-0.5-0.8-0.8c-0.7-0.8-1.2-1.7-1.3-2.7c-0.2-1.8,1.8-5,4-7.8c0,0,0,0,0,0
				c-0.7-0.7-1.2-1.5-1.5-1.7c-0.1-0.2-0.2-0.3-0.4-0.5c-1.6,2.2-4,5.5-4.3,6.9c-0.1,0.4-0.1,0.8-0.1,1.2c0.1,1.6,0.9,3.1,2,4.4
				c1.5,1.4,3.4,3,5.7,3.1c0,0,0.1,0,0.1,0c0,0,0.1,0,0,0C380.7,54.4,379.6,53.5,378.6,52.5z"/>
		</g>
		<g>
			<path class="st6" d="M391.7,52c-0.3-0.2-1.1-0.9-1.9-1.6c0,0,0,0,0,0c-2,1.5-4.4,3.2-5.7,3.7c-0.6,0.2-2.5,1.6-6.3-0.9
				c1.7,1.7,4.3,4,7.3,3.4c1.4-0.3,4.7-2.7,7-4.3C392,52.2,391.9,52.1,391.7,52z"/>
		</g>
		<g>
			<g>
				<path class="st6" d="M400.8,20.4c-0.4,0-0.8,0-1.2,0.1c-1.4,0.3-4.6,2.6-6.9,4.2c0.2,0.2,1.3,1,2.2,1.8c0,0,0,0,0,0
					c2.8-2.2,5.9-4.2,7.8-4c1.1,0.1,1.9,0.6,2.7,1.3c0.3,0.2,0.6,0.5,0.8,0.8c0.4,0.4,0.8,0.8,1.1,1.3
					C405.8,22.5,402.5,20.5,400.8,20.4z"/>
			</g>
		</g>
		<g>
			<linearGradient id="SVGID_5_" gradientUnits="userSpaceOnUse" x1="377.5094" y1="28.0971" x2="396.8619" y2="28.0971">
				<stop  offset="0" style="stop-color:#96C93D"/>
				<stop  offset="0.1913" style="stop-color:#92C83D"/>
				<stop  offset="0.3954" style="stop-color:#85C63F"/>
				<stop  offset="0.6056" style="stop-color:#70C142"/>
				<stop  offset="0.8184" style="stop-color:#52BB46"/>
				<stop  offset="1" style="stop-color:#33B44A"/>
			</linearGradient>
			<path class="st7" d="M396.5,28.9c-0.2-0.5-0.9-1.3-1.8-2c-1-0.9-2.1-1.8-2.2-1.8c0,0,0,0-0.1,0c-2.2-1.6-5.7-4.1-7.1-4.4
				c-0.4-0.1-0.8-0.1-1.2-0.1c-1.6,0.1-5,2.1-6.6,5.5c0.3-0.4,0.7-0.9,1.1-1.3c0.3-0.3,0.5-0.5,0.8-0.8c0.8-0.7,1.7-1.2,2.7-1.3
				c1.9-0.2,5.1,1.9,8,4.2c0,0,0,0,0,0c0.8,0.6,1.6,1.2,2.3,1.9c0,0,0,0,0.1,0c1.2,1,2.5,2.1,2.4,3.6c0,0.4-0.6,1.5-1.3,2.9
				c0.3,0.1,0.6,0.3,0.9,0.5c1.2-2.2,2.2-4.1,2.3-4.6C396.9,30.4,396.7,29.6,396.5,28.9z"/>
		</g>
		<g>
			<linearGradient id="SVGID_6_" gradientUnits="userSpaceOnUse" x1="406.8897" y1="49.0156" x2="389.3096" y2="49.0156">
				<stop  offset="0" style="stop-color:#96C93D"/>
				<stop  offset="0.1913" style="stop-color:#92C83D"/>
				<stop  offset="0.3954" style="stop-color:#85C63F"/>
				<stop  offset="0.6056" style="stop-color:#70C142"/>
				<stop  offset="0.8184" style="stop-color:#52BB46"/>
				<stop  offset="1" style="stop-color:#33B44A"/>
			</linearGradient>
			<path class="st8" d="M400.8,54.1c-1.4-0.6-3.9-2.3-5.9-3.9c-0.9-0.7-1.8-1.4-2.4-1.9c-0.6-0.5-0.9-0.8-1-0.8c0,0-1.5-1.4-1.4-2.8
				c0-0.4,0.5-1.5,1.2-2.9c-0.4-0.1-0.7-0.3-1-0.6c-1,1.9-1.9,3.5-2,4.1c-0.2,0.9-0.1,1.9,0.3,2.9c0.2,0.6,0.9,1.3,1.6,2
				c0.7,0.7,1.5,1.3,1.8,1.6c0.2,0.1,0.3,0.3,0.5,0.4c0,0,0,0,0.1,0c2.2,1.6,5.7,4.2,7.2,4.5c3,0.6,5.6-1.7,7.3-3.4
				C403.3,55.8,401.3,54.3,400.8,54.1z"/>
		</g>
		<g>
			<path class="st9" d="M377.2,28.6c0.2-0.2,0.3-0.3,0.5-0.4l13.2-7.6c0.5-0.2,1-0.2,1.6-0.2c0.1,0,0.2,0,0.3,0l11.2,7.7
				c1.2,0.9,2.2,2,2.8,3.4c0.3-0.5,0.6-1,0.7-1.3l0,0l0.1-0.1c0.4-0.9,0.4-2,0-3.1c-0.2-0.1-0.3-0.2-0.5-0.3l-11.5-6.6
				c-0.9-0.5-1.9-0.8-2.9-0.8c0,0,0,0-0.1,0c0,0,0,0-0.1,0c0,0,0,0-0.1,0c0,0,0,0-0.1,0c0,0,0,0-0.1,0c0,0,0,0-0.1,0c0,0,0,0-0.1,0
				c0,0,0,0,0,0c0,0,0,0,0,0c-1,0-2.1,0.3-3,0.8l-11.4,6.7c-0.1,0.1-0.3,0.2-0.4,0.3C377.2,27.6,377.1,28.1,377.2,28.6z"/>
			<path class="st9" d="M374.7,43.8c0.6-1.1,1.5-2.4,2.5-3.8l-0.1-1.2l-0.2-1.9c-0.9-1.3-1.7-2.5-2.3-3.5L374.7,43.8z"/>
			<path class="st9" d="M393.4,57.3c-0.3,0.1-0.7,0.1-1,0.1l-11.5-7.9c-1.3-0.9-2.3-2.1-2.9-3.6c-0.8,1.5-1,2.5-1,3
				c0.1,0.8,0.4,1.5,1.1,2.4l11.2,6.4c1,0.5,2,0.8,3.1,0.8c1.1,0,2.2-0.3,3.2-0.9l11.1-6.5c0.6-0.7,0.9-1.4,1-2.1L393.4,57.3z"/>
			<path class="st9" d="M410.2,33.5c-0.6,1.1-1.6,2.5-2.6,3.9l0.1,1.4l0.1,1.4c0.8,1.1,1.7,2.5,2.4,3.8L410.2,33.5z"/>
		</g>
		<g>
			<path class="st6" d="M410.5,45.8c-0.8-2.1-3.6-6-4.5-7.2l0,0c-0.1-0.1-1-1.3-2-2.4c-0.7-0.8-1.4-1.4-1.9-1.6
				c-0.8-0.3-1.5-0.5-2.3-0.3c-0.4,0.1-2.8,1.3-4.8,2.4c0,0,0,0,0,0c0-0.1-0.1-0.2-0.1-0.3c-0.2-0.1-0.4-0.2-0.5-0.2
				c-0.1-0.2-0.2-0.3-0.3-0.5c-0.1,0-0.2,0-0.3,0c-0.1-0.1-0.1-0.1-0.2-0.2c-0.2,0-0.4,0-0.6,0.1c-0.2-0.1-0.3-0.2-0.5-0.3
				c-0.1,0-0.2,0.1-0.3,0.1c-0.1,0-0.2-0.1-0.3-0.1c-0.2,0.1-0.3,0.2-0.5,0.3c-0.2,0-0.4,0-0.6,0c-0.1,0.1-0.1,0.2-0.2,0.2
				c-0.1,0-0.2,0.1-0.3,0.1c-0.1,0.2-0.2,0.4-0.2,0.5c-0.2,0.1-0.3,0.2-0.5,0.3c0,0.1,0,0.2,0,0.3c-0.1,0.1-0.1,0.1-0.2,0.2
				c0,0.2,0,0.4,0.1,0.6c-0.1,0.2-0.2,0.3-0.3,0.5c0,0.1,0.1,0.2,0.1,0.3c0,0.1-0.1,0.2-0.1,0.3c0.1,0.2,0.2,0.3,0.3,0.5
				c0,0,0,0.1,0,0.1c-1.6,0.8-2.9,1.4-3.3,1.4c-1.4,0.1-2.8-1.4-2.8-1.4c-0.1-0.1-0.4-0.5-0.9-1.1c-0.5-0.6-1.1-1.4-1.8-2.3
				c-1.6-2.1-3.3-4.5-3.9-5.9c0,0,0,0,0,0c0-0.1,0-0.1-0.1-0.2c-1.2-3.3,1.4-6.4,2.8-7.8c0,0,0,0,0,0c-0.7,0.5-1.3,1.1-1.8,1.7l0,0
				c0,0,0,0,0,0c0,0,0,0,0,0l0,0c-1.7,1.7-4.1,4.3-3.5,7.4c0.3,1.5,2.8,4.9,4.5,7.2l0,0c0.1,0.2,0.3,0.4,0.4,0.6
				c0.2,0.3,0.8,1,1.4,1.7c0.7,0.7,1.5,1.4,2.1,1.7c1,0.4,1.9,0.4,2.9,0.3c0.7-0.1,2.4-1.1,4.5-2.2c0.1,0.1,0.2,0.1,0.3,0.2
				c0.1,0.2,0.2,0.3,0.3,0.5c0.1,0,0.2,0,0.3,0c0.1,0.1,0.1,0.1,0.2,0.2c0.2,0,0.4,0,0.6-0.1c0.2,0.1,0.3,0.2,0.5,0.3
				c0.1,0,0.2-0.1,0.3-0.1c0.1,0,0.2,0.1,0.3,0.1c0.2-0.1,0.3-0.2,0.5-0.3c0.2,0,0.4,0,0.6,0c0.1-0.1,0.1-0.2,0.2-0.2
				c0.1,0,0.2-0.1,0.3-0.1c0.1-0.2,0.2-0.4,0.2-0.5c0.2-0.1,0.3-0.2,0.5-0.3c0-0.1,0-0.2,0-0.3c0.1-0.1,0.1-0.1,0.2-0.2
				c0-0.2,0-0.4-0.1-0.6c0.1-0.2,0.2-0.3,0.3-0.5c0-0.1-0.1-0.2-0.1-0.3c0-0.1,0.1-0.2,0.1-0.3c-0.1-0.1-0.1-0.2-0.2-0.3
				c1.5-0.8,2.8-1.5,3.2-1.5c1.5-0.1,2.6,1.3,3.6,2.4c0,0,0,0,0,0c0.6,0.7,1.3,1.5,1.9,2.3c0,0,0,0,0.1,0.1c2.2,2.9,4.3,6.1,4.2,8
				c-0.1,1.1-0.6,1.9-1.3,2.7c-0.2,0.3-0.5,0.6-0.8,0.8c-1,1-2.2,1.3-2.1,1.3c2.3-0.5,3-1,4.4-2.4c1-1.3,1.9-2.7,2-4.4
				C410.6,46.6,410.7,46.2,410.5,45.8z"/>
		</g>
	</g>
	<g>
		<path class="st10" d="M57.5,87.4c-2.7,3.6-8.6,6.5-16.1,6.5C29.5,94,20,87,20,74.6c0-11.1,7.6-19.2,22.2-19.2
			c7.7,0,13.3,2.9,15.4,5.9l-2.9,3.6c-2.3-3.2-6.8-5.2-12.9-5.2c-11,0-17,6.1-17,14.8c0,9.3,7,14.9,16.5,14.9
			c5.8,0,10.6-1.9,13.2-5.5L57.5,87.4z"/>
		<path class="st10" d="M61.8,93.1V56.1h29.5v4.2H66.5v11.9h22.3v3.7H66.5v12.9h25.4v4.4H61.8z"/>
		<path class="st10" d="M96.2,93.1V56.1h4.7v32.7h24.3v4.3H96.2z"/>
		<path class="st10" d="M128.3,93.1V56.1h4.7v32.7h24.3v4.3H128.3z"/>
		<path class="st3" d="M191.3,78.6h-14.1v-5.7H198V87c-3.6,5.4-12.4,7-17.3,7c-12.1,0-21.7-6-21.7-19.3c0-11.8,7.5-19.3,21.6-19.3
			c8.7,0,13.6,2.1,17.2,6.1l-4.3,5.1c-2.5-2.8-5.4-4.9-13.4-4.9c-9.1,0-14.2,4.6-14.2,12.9c0,8.8,6.2,13.1,15.2,13.1
			c4.8,0,8.3-1.1,10.2-3.2V78.6z"/>
		<path class="st3" d="M203,93.1V56.1h30.3v6.1h-23.6v9.3h21v5.3h-21v10.1h24.2v6.3H203z"/>
		<path class="st3" d="M253.1,93.1l-18.4-37.1h7.8l12.8,26.8l12.5-26.8h7.4L257,93.1H253.1z"/>
		<path class="st3" d="M277.6,93.1V56.1h6.7v37.1H277.6z"/>
		<path class="st3" d="M301.1,93.1V62.2h-14v-6.2h34.7v6.2h-14v30.9H301.1z"/>
		<path class="st3" d="M339.3,93.1V78.2L321,56.1h8.7l13,16.2l12.9-16.2h8.3l-18,22.2v14.9H339.3z"/>
	</g>
	<g>
		<path d="M349,86.1h5.6v0.6h-2.4v6.5h-0.7v-6.5H349V86.1z"/>
		<path d="M355.8,86.1h1l2.4,6.2l2.4-6.2h1v7h-0.7v-6.1h0l-2.4,6.1h-0.6l-2.4-6.1h0v6.1h-0.7V86.1z"/>
	</g>
	<g>
		<path d="M27.5,118.6h-5.8l-1.5,3.4h-1.2l5-11.1h1.3l5,11.1H29L27.5,118.6z M24.6,112.1l-2.5,5.5h4.9L24.6,112.1z"/>
		<path d="M32.2,110.9h5.4c3.2,0,4.9,2.1,4.9,5.6c0,3.1-1.6,5.6-4.7,5.6h-5.6V110.9z M33.4,121h4.2c2,0,3.7-1.1,3.7-4.5
			c0-2.9-1.2-4.5-3.7-4.5h-4.2V121z"/>
		<path d="M53.9,110.9h1.2L50.2,122H49l-5-11.1h1.3l4.3,9.8L53.9,110.9z"/>
		<path d="M63.8,118.6h-5.8l-1.5,3.4h-1.2l5-11.1h1.3l5,11.1h-1.3L63.8,118.6z M60.8,112.1l-2.5,5.5h4.9L60.8,112.1z"/>
		<path d="M68.4,110.9h1.4l7.8,9.5h0v-9.5h1.2V122h-1.3l-7.8-9.5h0v9.5h-1.2V110.9z"/>
		<path d="M92.8,117.8c-0.2,2.5-2.3,4.5-5.5,4.5c-3.6,0-5.9-2.3-5.9-5.8c0-2.5,1.6-5.8,5.9-5.8c2.4,0,5.1,1.1,5.4,4h-1.2
			c-0.3-2.1-2.2-3-4.2-3c-2.8,0-4.7,1.5-4.7,4.8c0,2.5,1.3,4.8,4.7,4.8c2.6,0,3.9-1.3,4.3-3.5H92.8z"/>
		<path d="M95.5,110.9h8.8v1.1h-7.7v3.8h7.4v1.1h-7.4v4.2h7.8v1.1h-9V110.9z"/>
		<path d="M107,110.9h5.4c3.2,0,4.9,2.1,4.9,5.6c0,3.1-1.6,5.6-4.7,5.6H107V110.9z M108.1,121h4.2c2,0,3.7-1.1,3.7-4.5
			c0-2.9-1.2-4.5-3.7-4.5h-4.2V121z"/>
		<path d="M125.4,110.9h6c1.9,0,3.6,0.7,3.6,3c0,1.2-0.7,2.4-2.2,2.7v0c1.6,0.2,1.9,1.3,2,3.1c0,0.7,0.1,2.1,0.4,2.3H134
			c-0.2-0.2-0.3-1.1-0.3-2.3c0-2-0.8-2.6-2.7-2.6h-4.5v4.9h-1.2V110.9z M126.6,116.1h4.9c1.3,0,2.4-0.5,2.4-2.2
			c0-1.6-1.2-1.9-2.3-1.9h-5V116.1z"/>
		<path d="M137.8,110.9h1.2V122h-1.2V110.9z"/>
		<path d="M142.1,110.9h6.3c2.2,0,3.1,1.2,3.1,2.8c0,1.1-0.6,2.1-1.9,2.4v0c1.5,0.2,2.3,1.3,2.3,2.7c0,2.3-2,3.2-3.7,3.2h-6.2V110.9
			z M143.2,115.7h4.6c1.6,0,2.6-0.5,2.6-2c0-1.4-0.9-1.8-2.2-1.8h-4.9V115.7z M143.2,121h4.8c1.5,0,2.6-0.6,2.6-2.1
			c0-1.6-1-2.1-2.3-2.1h-5.1V121z"/>
		<path d="M160.1,110.6c3.2,0,6,1.9,6,5.8s-2.9,5.8-6,5.8s-6-1.9-6-5.8S157,110.6,160.1,110.6z M160.1,121.2c2.4,0,4.8-1.4,4.8-4.8
			c0-3.3-2.3-4.8-4.8-4.8c-2.4,0-4.8,1.4-4.8,4.8C155.4,119.8,157.7,121.2,160.1,121.2z"/>
		<path d="M179.7,117.8c-0.2,2.5-2.3,4.5-5.5,4.5c-3.6,0-5.9-2.3-5.9-5.8c0-2.5,1.6-5.8,5.9-5.8c2.4,0,5.1,1.1,5.4,4h-1.2
			c-0.3-2.1-2.2-3-4.2-3c-2.8,0-4.7,1.5-4.7,4.8c0,2.5,1.3,4.8,4.7,4.8c2.6,0,3.9-1.3,4.3-3.5H179.7z"/>
		<path d="M182.5,110.9h8.8v1.1h-7.7v3.8h7.4v1.1h-7.4v4.2h7.8v1.1h-9V110.9z"/>
		<path d="M194.1,110.9h1.2V122h-1.2V110.9z"/>
		<path d="M198.3,110.9h1.4l7.8,9.5h0v-9.5h1.2V122h-1.3l-7.8-9.5h0v9.5h-1.2V110.9z"/>
		<path d="M211.8,110.9h8.8v1.1H213v3.8h7.4v1.1H213v4.2h7.8v1.1h-9V110.9z"/>
		<path d="M231.8,112h-4.4v-1.1h9.9v1.1h-4.4v10h-1.2V112z"/>
		<path d="M239.4,110.9h8.8v1.1h-7.7v3.8h7.4v1.1h-7.4v4.2h7.8v1.1h-9V110.9z"/>
		<path d="M261.8,117.8c-0.2,2.5-2.3,4.5-5.5,4.5c-3.6,0-5.9-2.3-5.9-5.8c0-2.5,1.6-5.8,5.9-5.8c2.4,0,5.1,1.1,5.4,4h-1.2
			c-0.3-2.1-2.2-3-4.2-3c-2.8,0-4.7,1.5-4.7,4.8c0,2.5,1.3,4.8,4.7,4.8c2.6,0,3.9-1.3,4.3-3.5H261.8z"/>
		<path d="M264.4,110.9h1.2v4.7h8v-4.7h1.2V122h-1.2v-5.3h-8v5.3h-1.2V110.9z"/>
		<path d="M277.7,110.9h1.4l7.8,9.5h0v-9.5h1.2V122h-1.3l-7.8-9.5h0v9.5h-1.2V110.9z"/>
		<path d="M296.6,110.6c3.2,0,6,1.9,6,5.8s-2.9,5.8-6,5.8c-3.2,0-6-1.9-6-5.8S293.5,110.6,296.6,110.6z M296.6,121.2
			c2.4,0,4.8-1.4,4.8-4.8c0-3.3-2.3-4.8-4.8-4.8c-2.4,0-4.8,1.4-4.8,4.8C291.8,119.8,294.2,121.2,296.6,121.2z"/>
		<path d="M305.2,110.9h1.2v10h7v1.1h-8.2V110.9z"/>
		<path d="M321,110.6c3.2,0,6,1.9,6,5.8s-2.9,5.8-6,5.8c-3.2,0-6-1.9-6-5.8S317.8,110.6,321,110.6z M321,121.2
			c2.4,0,4.8-1.4,4.8-4.8c0-3.3-2.3-4.8-4.8-4.8c-2.4,0-4.8,1.4-4.8,4.8C316.2,119.8,318.5,121.2,321,121.2z"/>
		<path d="M339.7,119.9L339.7,119.9c-1.2,1.6-2.5,2.4-4.7,2.4c-3.8,0-5.8-2.4-5.8-5.8c0-3.4,2.3-5.8,5.9-5.8c3.1,0,5.1,1.7,5.4,3.8
			h-1.2c-0.5-1.9-2.1-2.7-4.1-2.7c-3,0-4.7,1.9-4.7,4.8c0,3,1.5,4.8,4.5,4.8c3.3,0,4.4-1.9,4.7-3.9h-4.1v-1.1h5.1v5.7h-0.9
			L339.7,119.9z"/>
		<path d="M347.5,117.3l-5-6.4h1.5l4.1,5.3l4.1-5.3h1.5l-5,6.4v4.7h-1.2V117.3z"/>
	</g>
</g>
</svg>
