<?xml version="1.0" encoding="utf-8"?>
<!-- Generator: Adobe Illustrator 21.1.0, SVG Export Plug-In . SVG Version: 6.00 Build 0)  -->
<svg version="1.1" id="Layer_1" xmlns="http://www.w3.org/2000/svg" xmlns:xlink="http://www.w3.org/1999/xlink" x="0px" y="0px"
	 viewBox="0 0 407 170" style="enable-background:new 0 0 407 170;" xml:space="preserve">
<style type="text/css">
	.st0{fill:#8E9090;}
	.st1{fill:#3CBEBC;}
	.st2{fill:#231F20;}
	.st3{fill:#4EBEA4;}
	.st4{fill:#4CB64D;}
	.st5{fill:#77BF43;}
	.st6{fill:#B7D333;}
</style>
<g>
	<g>
		<path class="st0" d="M399.5,44.1l-0.1-16.3c0-2.8-1.5-5.4-4-6.8l-14.3-8.1c-1.1-0.6-2.3-1-3.6-1c0,0,0,0-0.1,0c0,0,0,0-0.1,0
			c0,0-0.1,0-0.1,0c0,0-0.1,0-0.1,0c0,0-0.1,0-0.1,0c0,0-0.1,0-0.1,0c0,0-0.1,0-0.1,0c0,0,0,0,0,0c0,0,0,0,0,0
			c-1.3,0-2.6,0.4-3.7,1.1l-14.2,8.3c-1.1,0.6-2,1.5-2.7,2.5c0,0,0,0-0.1,0.1v0c0,0,0,0.1-0.1,0.1c0,0,0,0,0,0.1c0,0,0,0,0,0
			c-0.7,1.2-1.1,2.6-1.1,4l0.1,15.8l0,0.7c0,0.1,0,0.3,0.1,0.4c0.1,2.3,1.3,4.5,3.2,5.9v-3.4c0-0.9,0.5-1.6,1.2-2.1
			c-0.2-0.3-0.3-0.7-0.5-1c-0.2-0.4-0.2-0.9-0.3-1.3c-0.1-0.4-0.2-0.8-0.2-1.2l-0.5-5.7l-0.9-11.2c0.4-0.7,1-1.4,1.6-2l16.4-9.5
			c0.6-0.2,1.3-0.3,1.9-0.3c0.1,0,0.3,0,0.4,0l13.9,9.6c2.5,1.7,4.1,4.5,4.4,7.5l0.5,5.7l0.6,7.3l0.1,1.3l0.2,3
			c-0.2,0.4-0.5,0.7-0.8,1l-1.1,0.7v1.9l0.2-0.1c2.2-1.3,3.6-3.6,3.8-6.1c0-0.2,0.1-0.5,0.1-0.7L399.5,44.1z"/>
	</g>
	<g>
		<path class="st0" d="M378.5,59.1c-0.4,0.1-0.8,0.1-1.2,0.1l-7.4-5.1H364l9.5,5.4c1.2,0.7,2.5,1,3.9,1c1.4,0,2.8-0.4,4-1.1l9.2-5.4
			h-3.4L378.5,59.1z"/>
	</g>
	<g>
		<path class="st1" d="M393.3,46.8c-0.1,0-0.2-0.1-0.3-0.1c-0.1,0-0.3,0.1-0.4,0.1l-1.5,1.3c-0.4,0.3-0.8,0.5-1.3,0.5H383l0.3-2.1
			c5.8-2.3,9.6-7.5,9.6-13.3c0-8-7.2-14.5-16-14.5s-16,6.5-16,14.5c0,5.8,3.8,10.9,9.6,13.3l0.3,2.1h-6.8c-0.5,0-0.9-0.2-1.3-0.5
			l-1.5-1.3c-0.1-0.1-0.3-0.1-0.4-0.1c-0.1,0-0.2,0-0.3,0.1c0,0,0,0-0.1,0.1c-0.2,0.1-0.3,0.3-0.3,0.5v3.9c0,0.6,0.4,1,0.9,1h6.2
			h6.8c0.3,0,0.6-0.1,0.7-0.3c0.2-0.2,0.3-0.5,0.2-0.8l-0.9-5.8c-0.1-0.6-0.5-1.1-1-1.3c-0.8-0.3-1.6-0.8-2.3-1.3
			c-3-2.2-4.8-5.7-4.8-9.6c0-6.4,4.9-11.6,10.8-11.6s10.8,5.2,10.8,11.6c0,3.8-1.8,7.4-4.7,9.6c-0.7,0.5-1.5,1-2.3,1.3
			c-0.5,0.2-0.9,0.7-1,1.3l-0.9,5.8c0,0.3,0,0.6,0.2,0.8c0.2,0.2,0.5,0.3,0.8,0.3h10.5h2.4c0.5,0,0.9-0.5,0.9-1v-0.9v-3
			C393.7,47.1,393.5,46.9,393.3,46.8z"/>
	</g>
</g>
<g>
	<g>
		<g>
			<path d="M333.5,96h7v0.7h-3.1v8.1h-0.8v-8.1h-3.1V96z"/>
		</g>
		<g>
			<path d="M342,96h1.2l3,7.7l3-7.7h1.2v8.8h-0.8v-7.6h0l-3,7.6h-0.8l-3-7.6h0v7.6H342V96z"/>
		</g>
	</g>
	<g>
		<g>
			<path class="st2" d="M54.7,106.5V70.2l-19.3,36.3h-2.7L13.2,70.2v36.3H7.8V61.1h6.7l19.7,37l19.5-37h6.5v45.5H54.7z"/>
		</g>
		<g>
			<path class="st2" d="M113,106.5l-6.8-12.9H78.8l-6.7,12.9h-6.5l24.1-45.5h5.5l24.5,45.5H113z M92.5,67.3L81,89.1h23L92.5,67.3z"
				/>
		</g>
		<g>
			<path class="st2" d="M165.8,106.5l-18.8-20l-18.8,20h-7.1l21.9-23.2l-21.6-22.3h7.5l18.2,19.1l18.1-19.1h7.1L151,83.5l21.9,23
				H165.8z"/>
		</g>
		<g>
			<path class="st1" d="M181.7,94.2c3.6,4.1,10.3,5.8,15.5,5.8c4.9,0,9.8-1.7,9.8-6.6c0-6.4-8-6.5-17.3-6.5v-6.5
				c11.4,0,16.5-0.8,16.5-6c0-4.6-4.8-5.9-9.4-5.9c-5.8,0-10.6,1.7-14.2,6.5l-6.4-5.3c4.6-6.3,12.9-9.4,21.1-9.4
				c8.7,0,17.3,3.9,17.3,13.6c0,4.6-2.3,8.2-7.4,9.6c5.8,1,9.3,4,9.3,10.5c0,7.9-7.8,13.5-19,13.5c-6.9,0-14.8-1.4-20.5-6.3
				L181.7,94.2z"/>
		</g>
		<g>
			<path class="st3" d="M227.8,89.9c-3.6,0-6.6-2.6-6.6-6c0-3.5,3-5.9,6.6-5.9c3.6,0,6.8,2.4,6.8,5.9
				C234.5,87.3,231.4,89.9,227.8,89.9z"/>
		</g>
		<g>
			<path class="st4" d="M251.4,67.6l-0.5,10.7c2.2-1.5,5.2-2.9,10.3-2.9c8.2,0,16.7,4.4,16.7,15.9c0,7.4-5.1,16.2-19.4,16.2
				c-9.1,0-15.3-3.6-19.3-7.9l5.8-6.3c4.2,5,8.5,6.6,14,6.6c6.5,0,10.7-2.4,10.7-8.7c0-5.8-4.7-8.9-10.8-8.9c-5.8,0-8.6,2-10.3,3.9
				l-6-1.4l0.8-23.8h32v6.6H251.4z"/>
		</g>
		<g>
			<path class="st5" d="M288.8,89.9c-3.6,0-6.6-2.6-6.6-6c0-3.5,3-5.9,6.6-5.9s6.8,2.4,6.8,5.9C295.6,87.3,292.4,89.9,288.8,89.9z"
				/>
		</g>
		<g>
			<path class="st6" d="M302.3,106.5c6.4-14.2,14.1-27.3,23.5-37.9h-26.3v-7.5h35.3l1.6,5.2c-10.5,11.1-18.9,25.9-25,40.3H302.3z"/>
		</g>
	</g>
	<g>
		<path class="st2" d="M18.6,137.4h-7.3l-1.9,4.2H7.8l6.3-13.9h1.7l6.3,13.9h-1.7L18.6,137.4z M14.9,129.1l-3.1,6.9H18L14.9,129.1z"
			/>
		<path class="st2" d="M25.1,127.7h7.6c2.4,0,4.5,0.8,4.5,3.8c0,1.5-0.9,3-2.7,3.4v0c2,0.3,2.4,1.6,2.5,3.9c0,0.9,0.2,2.6,0.5,2.9
			h-1.6c-0.3-0.3-0.4-1.3-0.4-2.8c0-2.5-1-3.3-3.4-3.3h-5.6v6.1h-1.4V127.7z M26.5,134.1h6.1c1.6,0,3-0.6,3-2.7c0-2-1.5-2.4-2.9-2.4
			h-6.2V134.1z"/>
		<path class="st2" d="M54.7,136.3c-0.3,3.1-2.9,5.7-6.9,5.7c-4.5,0-7.4-2.8-7.4-7.3c0-3.2,2-7.3,7.4-7.3c3,0,6.3,1.4,6.8,5.1h-1.4
			c-0.4-2.7-2.8-3.7-5.3-3.7c-3.5,0-5.9,1.9-5.9,6c0,3.1,1.6,6,5.9,6c3.3,0,5-1.7,5.4-4.3H54.7z"/>
		<path class="st2" d="M62.5,129H57v-1.3h12.4v1.3h-5.5v12.6h-1.4V129z"/>
		<path class="st2" d="M72.4,127.7h1.4v13.9h-1.4V127.7z"/>
		<path class="st2" d="M91.9,136.3c-0.3,3.1-2.9,5.7-6.9,5.7c-4.5,0-7.4-2.8-7.4-7.3c0-3.2,2-7.3,7.4-7.3c3,0,6.3,1.4,6.8,5.1h-1.4
			c-0.4-2.7-2.8-3.7-5.3-3.7c-3.5,0-5.9,1.9-5.9,6c0,3.1,1.6,6,5.9,6c3.3,0,5-1.7,5.4-4.3H91.9z"/>
		<path class="st2" d="M116.8,136.3c-0.3,3.1-2.9,5.7-6.9,5.7c-4.5,0-7.4-2.8-7.4-7.3c0-3.2,2-7.3,7.4-7.3c3,0,6.3,1.4,6.8,5.1h-1.4
			c-0.4-2.7-2.8-3.7-5.3-3.7c-3.5,0-5.9,1.9-5.9,6c0,3.1,1.6,6,5.9,6c3.3,0,5-1.7,5.4-4.3H116.8z"/>
		<path class="st2" d="M127.5,127.3c4,0,7.6,2.4,7.6,7.3c0,4.9-3.6,7.3-7.6,7.3c-4,0-7.6-2.4-7.6-7.3
			C119.9,129.7,123.5,127.3,127.5,127.3z M127.5,140.6c3.1,0,6-1.8,6-6s-2.9-6-6-6s-6,1.8-6,6S124.4,140.6,127.5,140.6z"/>
		<path class="st2" d="M138.6,127.7h6.8c4.1,0,6.2,2.6,6.2,7c0,3.9-2,7-6,7h-7V127.7z M140.1,140.3h5.3c2.5,0,4.7-1.4,4.7-5.6
			c0-3.7-1.4-5.6-4.7-5.6h-5.3V140.3z"/>
		<path class="st2" d="M170.2,127.3c4,0,7.6,2.4,7.6,7.3c0,4.9-3.6,7.3-7.6,7.3c-4,0-7.6-2.4-7.6-7.3
			C162.6,129.7,166.2,127.3,170.2,127.3z M170.2,140.6c3.1,0,6-1.8,6-6s-2.9-6-6-6s-6,1.8-6,6S167.1,140.6,170.2,140.6z"/>
		<path class="st2" d="M195.9,127.7h2v13.9h-1.4v-12h0l-6.1,12h-1.3l-6.1-12.1h0v12.1h-1.4v-13.9h2.1l6.2,12.1L195.9,127.7z"/>
		<path class="st2" d="M202.3,127.7h11.1v1.3h-9.6v4.7h9.3v1.3h-9.3v5.2h9.8v1.3h-11.2V127.7z"/>
		<path class="st2" d="M229.7,139L229.7,139c-1.5,2-3.1,3-5.8,3c-4.7,0-7.3-3-7.3-7.3c0-4.2,2.8-7.3,7.5-7.3c3.9,0,6.4,2.2,6.7,4.8
			h-1.6c-0.6-2.4-2.7-3.4-5.2-3.4c-3.8,0-5.9,2.3-5.9,6c0,3.7,1.9,6,5.6,6c4.2,0,5.5-2.4,5.9-4.9h-5.1v-1.3h6.4v7.2h-1.1L229.7,139z
			"/>
		<path class="st2" d="M244.6,137.4h-7.3l-1.9,4.2h-1.6l6.3-13.9h1.7l6.3,13.9h-1.7L244.6,137.4z M240.9,129.1l-3.1,6.9h6.2
			L240.9,129.1z"/>
		<path class="st2" d="M258.6,127.7h7.9c2.7,0,3.9,1.5,3.9,3.5c0,1.3-0.7,2.6-2.4,3v0c1.8,0.3,2.9,1.6,2.9,3.4c0,2.9-2.5,4-4.6,4
			h-7.7V127.7z M260,133.7h5.7c2,0,3.2-0.6,3.2-2.5c0-1.7-1.1-2.2-2.7-2.2H260V133.7z M260,140.3h6.1c1.9,0,3.3-0.7,3.3-2.7
			c0-2-1.2-2.6-2.9-2.6H260V140.3z"/>
		<path class="st2" d="M274.6,127.7h1.4v12.6h8.8v1.3h-10.3V127.7z"/>
		<path class="st2" d="M288,127.7h11.1v1.3h-9.6v4.7h9.3v1.3h-9.3v5.2h9.8v1.3H288V127.7z"/>
		<path class="st2" d="M302.7,127.7h1.7l9.7,11.9h0v-11.9h1.4v13.9H314l-9.8-11.9h0v11.9h-1.4V127.7z"/>
		<path class="st2" d="M319.8,127.7h6.8c4.1,0,6.2,2.6,6.2,7c0,3.9-2,7-6,7h-7V127.7z M321.2,140.3h5.3c2.5,0,4.7-1.4,4.7-5.6
			c0-3.7-1.4-5.6-4.7-5.6h-5.3V140.3z"/>
	</g>
</g>
</svg>
